<svg xmlns="http://www.w3.org/2000/svg" viewBox="0 0 46.01 8.68"><defs><style>.cls-1{fill:#fff;}</style></defs><title>menu</title><g id="ART"><path class="cls-1" d="M7.75,8.46l0-6h0l-2.19,6H4.13L2,2.47H2l0,6H.08V0H3L4.92,5.42H5L6.8,0h3V8.46Z" transform="translate(-0.08)"/><path class="cls-1" d="M15.07,8.46V0h5.69V1.72H17.05v1.6h3.51V5H17.05V6.71H21V8.46Z" transform="translate(-0.08)"/><path class="cls-1" d="M31.29,8.46,27.88,2.93h0l0,5.53h-2V0h2.33l3.39,5.52h0L31.62,0h2V8.46Z" transform="translate(-0.08)"/><path class="cls-1" d="M45.84,6.66a3.13,3.13,0,0,1-.73,1.08A3.44,3.44,0,0,1,44,8.43a4.62,4.62,0,0,1-3,0,3.25,3.25,0,0,1-1.14-.69,3.08,3.08,0,0,1-.71-1.08,3.66,3.66,0,0,1-.25-1.39V0h2V5.1a2.39,2.39,0,0,0,.09.66,1.76,1.76,0,0,0,.27.55,1.25,1.25,0,0,0,.49.39,1.68,1.68,0,0,0,.74.15,1.64,1.64,0,0,0,.73-.15,1.28,1.28,0,0,0,.5-.39A1.57,1.57,0,0,0,44,5.76a2.39,2.39,0,0,0,.08-.66V0H46.1V5.27A3.66,3.66,0,0,1,45.84,6.66Z" transform="translate(-0.08)"/></g></svg>